<svg id="visual" viewBox="0 0 960 300" width="960" height="300" xmlns="http://www.w3.org/2000/svg" xmlns:xlink="http://www.w3.org/1999/xlink" version="1.1"><rect x="0" y="0" width="960" height="300" fill="#e39906"></rect><path d="M0 211L137 179L274 197L411 205L549 220L686 206L823 181L960 183L960 301L823 301L686 301L549 301L411 301L274 301L137 301L0 301Z" fill="#f5730a"></path><path d="M0 239L137 230L274 198L411 227L549 196L686 211L823 234L960 220L960 301L823 301L686 301L549 301L411 301L274 301L137 301L0 301Z" fill="#da5b09"></path><path d="M0 218L137 233L274 254L411 220L549 222L686 249L823 241L960 239L960 301L823 301L686 301L549 301L411 301L274 301L137 301L0 301Z" fill="#be4407"></path><path d="M0 258L137 250L274 260L411 248L549 256L686 248L823 249L960 241L960 301L823 301L686 301L549 301L411 301L274 301L137 301L0 301Z" fill="#a32d04"></path><path d="M0 273L137 266L274 279L411 283L549 282L686 274L823 274L960 262L960 301L823 301L686 301L549 301L411 301L274 301L137 301L0 301Z" fill="#871400"></path></svg>