<svg id="visual" viewBox="0 0 960 300" width="960" height="300" xmlns="http://www.w3.org/2000/svg" xmlns:xlink="http://www.w3.org/1999/xlink" version="1.1"><rect x="0" y="0" width="960" height="300" fill="#202731"></rect><path d="M0 82L22.8 86.8C45.7 91.7 91.3 101.3 137 95.2C182.7 89 228.3 67 274 54.8C319.7 42.7 365.3 40.3 411.2 46.8C457 53.3 503 68.7 548.8 69.3C594.7 70 640.3 56 686 57.3C731.7 58.7 777.3 75.3 823 75C868.7 74.7 914.3 57.3 937.2 48.7L960 40L960 0L937.2 0C914.3 0 868.7 0 823 0C777.3 0 731.7 0 686 0C640.3 0 594.7 0 548.8 0C503 0 457 0 411.2 0C365.3 0 319.7 0 274 0C228.3 0 182.7 0 137 0C91.3 0 45.7 0 22.8 0L0 0Z" fill="#FF0000" stroke-linecap="round" stroke-linejoin="miter"></path></svg>