<svg id="visual" viewBox="0 0 900 600" width="900" height="600" xmlns="http://www.w3.org/2000/svg" xmlns:xlink="http://www.w3.org/1999/xlink" version="1.1"><rect x="0" y="0" width="900" height="600" fill="#002233"></rect><path d="M0 165L21.5 174.8C43 184.7 86 204.3 128.8 192C171.7 179.7 214.3 135.3 257.2 111C300 86.7 343 82.3 385.8 95.3C428.7 108.3 471.3 138.7 514.2 139.8C557 141 600 113 642.8 115.7C685.7 118.3 728.3 151.7 771.2 150.8C814 150 857 115 878.5 97.5L900 80L900 0L878.5 0C857 0 814 0 771.2 0C728.3 0 685.7 0 642.8 0C600 0 557 0 514.2 0C471.3 0 428.7 0 385.8 0C343 0 300 0 257.2 0C214.3 0 171.7 0 128.8 0C86 0 43 0 21.5 0L0 0Z" fill="#202731" stroke-linecap="round" stroke-linejoin="miter"></path></svg>